<svg width="106" height="14" viewBox="0 0 106 14" fill="none" xmlns="http://www.w3.org/2000/svg">
<g clip-path="url(#clip0_51093_44063)">
<path d="M0 0.118164H1.47175V13.882H0V0.118164Z" fill="#3F3F3F"/>
<path d="M17.6349 0.118164V13.882H16.4216L7.47566 2.71421V13.8833H6.00391V0.118164H7.21725L16.1828 11.2873V0.118164H17.6336H17.6349Z" fill="#3F3F3F"/>
<path d="M33.5778 0.118164L27.4153 13.882H25.9645L19.8008 0.118164H21.3906L26.7188 12.0735L32.0863 0.118164H33.5778Z" fill="#3F3F3F"/>
<path d="M45.4264 12.6236V13.882H35.5859V0.118164H45.1287V1.37662H37.0577V6.27292H44.2538V7.51191H37.0577V12.6249H45.4278L45.4264 12.6236Z" fill="#3F3F3F"/>
<path d="M47.5534 12.2109L48.1293 11.09C49.1235 12.0539 50.893 12.761 52.7216 12.761C55.3253 12.761 56.4587 11.679 56.4587 10.3232C56.4587 6.54787 47.8905 8.86758 47.8905 3.77537C47.8905 1.75016 49.4803 0 53.0193 0C54.5895 0 56.2199 0.452785 57.3336 1.21954L56.8364 2.37939C55.6441 1.61264 54.2524 1.239 53.0193 1.239C50.4746 1.239 49.3413 2.35993 49.3413 3.73645C49.3413 7.51182 57.9094 5.23103 57.9094 10.2454C57.9094 12.2706 56.279 14.0013 52.7203 14.0013C50.6333 14.0013 48.5857 13.2735 47.5508 12.2122L47.5534 12.2109Z" fill="#3F3F3F"/>
<path d="M63.6167 1.37662H58.7266V0.118164H69.9785V1.37662H65.0884V13.882H63.6167V1.37662Z" fill="#3F3F3F"/>
<path d="M92.0039 0.118164H98.3264C102.879 0.118164 106 2.83228 106 7.00075C106 11.1692 102.878 13.8833 98.3264 13.8833H92.0039V0.118164ZM98.1664 11.2678C100.93 11.2678 102.739 9.63572 102.739 7.00075C102.739 4.36578 100.93 2.73368 98.1664 2.73368H95.2242V11.2678H98.1664Z" fill="#00C83C"/>
<path d="M70.6523 7.00061C70.6523 7.87245 71.7175 8.30837 72.3405 7.69211C72.7262 7.31069 72.7262 6.69054 72.3405 6.30911C71.7175 5.69285 70.6523 6.12877 70.6523 7.00061Z" fill="#3F3F3F"/>
<path d="M71.6562 6.98486L98.574 7.0147" stroke="#3F3F3F" stroke-width="2" stroke-miterlimit="10"/>
<path d="M98.5742 5.64622V8.35385C98.5742 8.53808 98.7998 8.63019 98.931 8.50045L100.231 7.21475C100.35 7.09669 100.35 6.90468 100.231 6.78532L98.931 5.49962C98.7998 5.36988 98.5742 5.46199 98.5742 5.64622Z" fill="#3F3F3F"/>
<path d="M89.4398 11.3262V13.882H78.6641V0.118164H89.1814V2.674H81.866V11.3262H89.4398Z" fill="#00C83C"/>
</g>
<defs>
<clipPath id="clip0_51093_44063">
<rect width="106" height="14" fill="white"/>
</clipPath>
</defs>
</svg>
